<?xml version="1.0" encoding="utf-8"?>
<!-- Generator: Adobe Illustrator 16.0.0, SVG Export Plug-In . SVG Version: 6.00 Build 0)  -->
<!DOCTYPE svg PUBLIC "-//W3C//DTD SVG 1.1//EN" "http://www.w3.org/Graphics/SVG/1.1/DTD/svg11.dtd">
<svg version="1.1" id="Layer_1" xmlns="http://www.w3.org/2000/svg" xmlns:xlink="http://www.w3.org/1999/xlink" x="0px" y="0px"
	 width="90px" height="90px" viewBox="0 0 90 90" enable-background="new 0 0 90 90" xml:space="preserve">
<circle fill="#333333" cx="45" cy="45" r="45"/>
<g>
	<path fill="#666666" d="M38.69,34.411c0.029,0.03,0.065,0.083,0.107,0.149l3.502-3.512c-0.048-0.041-0.091-0.075-0.135-0.122
		l-10.965-11.01c-0.455-0.458-0.984-0.618-1.577-0.475c-0.598,0.137-1.102,0.42-1.526,0.845c-0.457,0.455-0.748,0.974-0.869,1.558
		c-0.124,0.58,0.042,1.1,0.503,1.558L38.69,34.411z"/>
	<path fill="#666666" d="M42.043,44.525l20.229-20.501c0.455-0.457,0.613-0.987,0.474-1.585c-0.139-0.598-0.423-1.108-0.841-1.531
		c-0.456-0.458-0.975-0.75-1.556-0.875c-0.578-0.12-1.095,0.048-1.556,0.505L38.561,41.043L24.477,26.901
		c-0.457-0.461-0.983-0.619-1.577-0.477c-0.6,0.141-1.107,0.422-1.527,0.843c-0.455,0.46-0.746,0.978-0.867,1.56
		c-0.121,0.58,0.042,1.101,0.501,1.558l14.088,14.142c-0.01,0.004-0.012,0.006-0.021,0.014l3.472,3.483
		c0.008,0.012,0.014,0.017,0.02,0.029l0.002-0.005l0.004,0.005c0.022-0.025,0.047-0.049,0.069-0.073l3.425-3.439
		C42.057,44.533,42.049,44.533,42.043,44.525z"/>
	<path fill="#666666" d="M67.182,26.552c-0.58-0.12-1.097,0.048-1.555,0.505L42.049,50.95c-0.033,0.03-0.083,0.063-0.15,0.109
		l0.047,0.04h-0.071c0.002,0.063,0.014,0.117,0.014,0.182v18.135c0,0.644,0.255,1.128,0.777,1.454
		c0.523,0.325,1.081,0.487,1.674,0.487c0.647,0,1.217-0.162,1.712-0.487c0.499-0.326,0.748-0.809,0.748-1.459V53.143l22.302-22.599
		c0.457-0.459,0.613-0.989,0.472-1.589c-0.139-0.596-0.419-1.107-0.838-1.53C68.277,26.968,67.764,26.679,67.182,26.552z"/>
</g>
</svg>
