<?xml version="1.0" encoding="utf-8"?>
<!-- Generator: Adobe Illustrator 16.0.0, SVG Export Plug-In . SVG Version: 6.00 Build 0)  -->
<!DOCTYPE svg PUBLIC "-//W3C//DTD SVG 1.1//EN" "http://www.w3.org/Graphics/SVG/1.1/DTD/svg11.dtd">
<svg version="1.1" id="_x3C_Layer_x3E_" xmlns="http://www.w3.org/2000/svg" xmlns:xlink="http://www.w3.org/1999/xlink" x="0px"
	 y="0px" width="18px" height="16px" viewBox="0 0 18 16" enable-background="new 0 0 18 16" xml:space="preserve">
<g>
	<circle fill="#E0E0E0" cx="10.055" cy="6.729" r="0.7"/>
	<circle fill="#E0E0E0" cx="14.25" cy="6.729" r="0.7"/>
	<circle fill="#E0E0E0" cx="3.814" cy="6.729" r="0.7"/>
	<path fill="#E0E0E0" d="M16.374,0H1.625C0.728,0,0,0.728,0,1.625v10.091c0,0.898,0.728,1.626,1.625,1.626h6.408l0.908,2.285
		c0.275,0.84,0.434,0,0.434,0l0.781-2.285h6.218c0.898,0,1.626-0.728,1.626-1.626V1.625C18,0.728,17.272,0,16.374,0z M4.055,8.387
		c-0.654,0-0.914-0.468-0.914-0.468v0.355H2.039V3.735h1.09v1.728c0.44-0.429,0.926-0.429,0.926-0.429
		c1.479,0,1.535,1.659,1.535,1.659C5.59,8.331,4.055,8.387,4.055,8.387z M7.487,5.339v2.936h-1.05V5.588
		c0-0.927-0.497-0.904-0.497-0.904V3.635C7.531,3.635,7.487,5.339,7.487,5.339z M11.896,6.729c0,1.656-1.842,1.658-1.842,1.658
		c-1.858,0-1.8-1.658-1.8-1.658c0-1.68,1.8-1.68,1.8-1.68C11.956,5.049,11.896,6.729,11.896,6.729z M15.961,8.232
		c0,1.718-1.592,1.702-1.592,1.702h-0.424V8.969h0.263c0.771,0,0.694-0.797,0.694-0.797V7.919c-0.339,0.44-0.957,0.415-0.957,0.415
		c-1.516,0-1.499-1.616-1.499-1.616c0-1.735,1.541-1.669,1.541-1.669c0.602,0,0.915,0.414,0.915,0.414V5.158h1.059V8.232z"/>
</g>
</svg>
