<?xml version="1.0" encoding="utf-8"?>
<!-- Generator: Adobe Illustrator 16.0.0, SVG Export Plug-In . SVG Version: 6.00 Build 0)  -->
<!DOCTYPE svg PUBLIC "-//W3C//DTD SVG 1.1//EN" "http://www.w3.org/Graphics/SVG/1.1/DTD/svg11.dtd">
<svg version="1.1" id="Layer_1" xmlns="http://www.w3.org/2000/svg" xmlns:xlink="http://www.w3.org/1999/xlink" x="0px" y="0px"
	 width="175.5px" height="42px" viewBox="0 0 175.5 42" enable-background="new 0 0 175.5 42" xml:space="preserve">
<circle fill="#222222" cx="21" cy="21" r="21"/>
<g>
	<path d="M55.824,21.004l2.504-4.827h1.881l-3.523,6.477v4.103h-1.737v-4.045l-3.51-6.535h1.881L55.824,21.004z"/>
	<path d="M68.331,26.757h-5.984v-10.58h5.984v1.462h-4.255v2.88h3.987v1.447h-3.987v3.322h4.255V26.757z"/>
	<path d="M71.359,26.757v-10.58h1.729v9.096h4.479v1.483H71.359z"/>
	<path d="M80.132,26.757v-10.58h1.729v9.096h4.479v1.483H80.132z"/>
	<path d="M98.297,21.452c0,1.723-0.43,3.062-1.291,4.016c-0.86,0.956-2.08,1.434-3.658,1.434c-1.597,0-2.823-0.475-3.68-1.422
		c-0.856-0.948-1.284-2.295-1.284-4.041c0-1.747,0.431-3.088,1.292-4.023c0.86-0.936,2.09-1.404,3.687-1.404
		c1.573,0,2.788,0.475,3.647,1.426C97.868,18.387,98.297,19.726,98.297,21.452z M90.222,21.452c0,1.303,0.264,2.29,0.789,2.964
		c0.525,0.673,1.306,1.009,2.337,1.009c1.028,0,1.803-0.332,2.327-0.999c0.522-0.664,0.785-1.656,0.785-2.974
		c0-1.297-0.26-2.281-0.778-2.952c-0.519-0.67-1.292-1.006-2.319-1.006c-1.037,0-1.819,0.335-2.348,1.006
		C90.486,19.171,90.222,20.155,90.222,21.452z"/>
	<path d="M111.071,26.757h-1.881l-1.794-6.31c-0.078-0.275-0.174-0.672-0.29-1.19c-0.115-0.518-0.186-0.879-0.21-1.082
		c-0.049,0.309-0.127,0.709-0.235,1.201c-0.108,0.492-0.198,0.858-0.271,1.1l-1.751,6.281h-1.881l-1.368-5.297L100,16.177h1.766
		l1.513,6.165c0.236,0.99,0.405,1.863,0.506,2.62c0.054-0.41,0.133-0.868,0.239-1.374c0.106-0.507,0.203-0.917,0.29-1.23l1.722-6.18
		h1.715l1.766,6.208c0.169,0.574,0.348,1.434,0.536,2.576c0.071-0.689,0.245-1.567,0.521-2.634l1.506-6.151h1.75L111.071,26.757z"/>
	<path d="M122.373,26.757h-1.715v-10.58h5.971v1.462h-4.256v3.307h3.987v1.469h-3.987V26.757z"/>
	<path d="M129.287,26.757v-10.58h1.729v10.58H129.287z"/>
	<path d="M143.364,26.757h-2.121l-5.202-8.431h-0.058l0.036,0.471c0.067,0.897,0.102,1.718,0.102,2.46v5.5h-1.57v-10.58h2.098
		l5.189,8.387h0.042c-0.009-0.111-0.027-0.516-0.058-1.212c-0.027-0.697-0.043-1.241-0.043-1.632v-5.543h1.585V26.757z"/>
	<path d="M151.225,21.018h3.894v5.312c-0.637,0.207-1.248,0.354-1.835,0.441c-0.586,0.086-1.219,0.13-1.898,0.13
		c-1.603,0-2.837-0.475-3.705-1.422c-0.868-0.948-1.303-2.286-1.303-4.012c0-1.703,0.489-3.036,1.469-3.998
		c0.979-0.963,2.328-1.443,4.045-1.443c1.104,0,2.152,0.212,3.141,0.637l-0.607,1.439c-0.859-0.395-1.718-0.593-2.576-0.593
		c-1.129,0-2.021,0.354-2.678,1.064c-0.655,0.708-0.984,1.679-0.984,2.909c0,1.293,0.296,2.276,0.887,2.948
		c0.591,0.674,1.441,1.011,2.55,1.011c0.561,0,1.158-0.07,1.795-0.21v-2.729h-2.192V21.018z"/>
	<path d="M164.384,26.757h-5.984v-10.58h5.984v1.462h-4.255v2.88h3.986v1.447h-3.986v3.322h4.255V26.757z"/>
	<path d="M169.141,22.53v4.227h-1.729v-10.58h2.988c1.366,0,2.376,0.256,3.032,0.767c0.655,0.511,0.984,1.284,0.984,2.315
		c0,1.317-0.686,2.255-2.055,2.815l2.988,4.682h-1.968l-2.533-4.227H169.141z M169.141,21.098h1.2c0.807,0,1.39-0.149,1.752-0.449
		s0.543-0.743,0.543-1.332c0-0.598-0.195-1.027-0.586-1.288c-0.391-0.26-0.979-0.391-1.767-0.391h-1.143V21.098z"/>
</g>
<g>
	<path fill="#FFFFFF" d="M17.901,15.949c0.014,0.015,0.032,0.041,0.053,0.074l1.733-1.738c-0.024-0.02-0.045-0.037-0.067-0.06
		l-5.426-5.448c-0.225-0.227-0.487-0.306-0.781-0.235C13.117,8.61,12.868,8.75,12.658,8.96c-0.226,0.225-0.37,0.482-0.43,0.771
		c-0.061,0.287,0.021,0.544,0.249,0.771L17.901,15.949z"/>
	<path fill="#FFFFFF" d="M19.56,20.954l10.01-10.145c0.226-0.226,0.304-0.488,0.235-0.784c-0.069-0.296-0.209-0.549-0.417-0.758
		c-0.225-0.227-0.482-0.371-0.769-0.433c-0.286-0.059-0.542,0.024-0.769,0.25L17.837,19.231l-6.97-6.998
		c-0.226-0.228-0.486-0.306-0.78-0.236c-0.297,0.07-0.548,0.209-0.756,0.417c-0.225,0.228-0.369,0.484-0.429,0.772
		c-0.06,0.287,0.021,0.545,0.248,0.771l6.971,6.998c-0.005,0.002-0.006,0.003-0.01,0.007l1.718,1.724
		c0.004,0.006,0.007,0.008,0.01,0.014l0.001-0.003l0.002,0.003c0.011-0.012,0.023-0.024,0.034-0.036l1.695-1.702
		C19.567,20.958,19.563,20.958,19.56,20.954z"/>
	<path fill="#FFFFFF" d="M32,12.06c-0.287-0.059-0.543,0.024-0.769,0.25L19.563,24.134c-0.016,0.014-0.041,0.031-0.074,0.053
		l0.023,0.021h-0.035c0.001,0.03,0.007,0.057,0.007,0.09v8.973c0,0.319,0.126,0.559,0.384,0.72c0.259,0.161,0.535,0.241,0.829,0.241
		c0.32,0,0.602-0.08,0.847-0.241c0.247-0.161,0.37-0.4,0.37-0.721v-8.051L32.95,14.035c0.227-0.227,0.304-0.489,0.234-0.786
		c-0.069-0.295-0.207-0.548-0.415-0.757C32.542,12.266,32.288,12.123,32,12.06z"/>
</g>
</svg>
