<?xml version="1.0" encoding="utf-8"?>
<!-- Generator: Adobe Illustrator 22.0.1, SVG Export Plug-In . SVG Version: 6.00 Build 0)  -->
<svg version="1.1" id="레이어_1" xmlns="http://www.w3.org/2000/svg" xmlns:xlink="http://www.w3.org/1999/xlink" x="0px"
	 y="0px" viewBox="0 0 24 24" style="enable-background:new 0 0 24 24;" xml:space="preserve">
<style type="text/css">
	.st0{fill:none;}
	.st1{fill:#FFFFFF;}
</style>
<g>
	<rect class="st0" width="24" height="24"/>
</g>
<g>
	<g>
		<g>
			<path class="st1" d="M17.5,4.5c-1.9,0-4.1,0.4-5.5,1.5c-1.4-1.1-3.6-1.5-5.5-1.5S2.5,4.9,1,6v14.6c0,0.6,0.7,0.5,0.8,0.5
				C3.1,20.5,5.1,20,6.5,20c1.9,0,4.1,0.4,5.5,1.5c1.4-0.9,3.8-1.5,5.5-1.5c1.6,0,3.4,0.3,4.8,1c0.4,0.2,0.8-0.2,0.8-0.4V6
				C21.5,4.9,19.4,4.5,17.5,4.5z M21,18.5c-1.1-0.4-2.3-0.5-3.5-0.5c-1.7,0-4.1,0.6-5.5,1.5V8c1.4-0.8,3.8-1.5,5.5-1.5
				c1.2,0,2.4,0.2,3.5,0.5V18.5z"/>
		</g>
	</g>
</g>
</svg>
