<?xml version="1.0" encoding="utf-8"?>
<!-- Generator: Adobe Illustrator 22.0.1, SVG Export Plug-In . SVG Version: 6.00 Build 0)  -->
<svg version="1.1" id="레이어_1" xmlns="http://www.w3.org/2000/svg" xmlns:xlink="http://www.w3.org/1999/xlink" x="0px"
	 y="0px" viewBox="0 0 24 24" style="enable-background:new 0 0 24 24;" xml:space="preserve">
<style type="text/css">
	.st0{fill:none;}
	.st1{fill:#FFFFFF;}
</style>
<g>
	<rect class="st0" width="24" height="24"/>
</g>
<g>
	<g>
		<path class="st1" d="M21.9,8.9l-1-4.4c-0.2-0.9-1-1.5-1.9-1.5H5.1C4.2,3,3.4,3.6,3.2,4.5L2.1,8.9c-0.2,1,0,2.1,0.6,2.9
			C2.8,11.9,2.9,12,3,12.1V19c0,1.1,0.9,2,2,2h14c1.1,0,2-0.9,2-2v-6.9c0.1-0.1,0.2-0.2,0.3-0.3C21.9,11,22.1,9.9,21.9,8.9z M18.9,5
			l1,4.4c0.1,0.4,0,0.8-0.3,1.2c-0.1,0.2-0.4,0.5-0.9,0.5c-0.6,0-1.1-0.5-1.2-1.1L17,5L18.9,5z M13,5h2l0.5,4.5
			c0.1,0.4-0.1,0.8-0.3,1.1c-0.2,0.3-0.5,0.4-0.9,0.4c-0.7,0-1.2-0.6-1.2-1.3V5z M8.5,9.5L9,5h2v4.7c0,0.7-0.6,1.3-1.3,1.3
			c-0.3,0-0.6-0.1-0.9-0.4C8.6,10.3,8.4,9.9,8.5,9.5z M4,9.4l1-4.4h2L6.4,9.9C6.4,10.5,5.8,11,5.2,11c-0.5,0-0.8-0.3-0.9-0.5
			C4,10.2,3.9,9.8,4,9.4z M5,19v-6c0.1,0,0.2,0,0.2,0c0.9,0,1.7-0.4,2.2-0.9C8.1,12.7,8.9,13,9.8,13c0.9,0,1.6-0.4,2.2-0.9
			c0.6,0.6,1.4,0.9,2.3,0.9c0.8,0,1.6-0.4,2.2-0.9c0.6,0.6,1.4,0.9,2.2,0.9c0.1,0,0.1,0,0.2,0v6H5z"/>
	</g>
</g>
</svg>
