<?xml version="1.0" encoding="utf-8"?>
<!-- Generator: Adobe Illustrator 22.0.1, SVG Export Plug-In . SVG Version: 6.00 Build 0)  -->
<svg version="1.1" id="레이어_1" xmlns="http://www.w3.org/2000/svg" xmlns:xlink="http://www.w3.org/1999/xlink" x="0px"
	 y="0px" viewBox="0 0 512 512" style="enable-background:new 0 0 512 512;" xml:space="preserve">
<style type="text/css">
	.st0{fill:#FFFFFF;}
</style>
<path class="st0" d="M256.2,430.1l-89.8-94.9l29.1-27.5l60.6,64.1l60.3-64.1l29.1,27.4L256.2,430.1z M422,392V120
	C422,53.8,368.2,0,302,0h-92C143.8,0,90,53.8,90,120v272c0,66.2,53.8,120,120,120h92C368.2,512,422,458.2,422,392z M302,40
	c44.1,0,80,35.9,80,80v272c0,44.1-35.9,80-80,80h-92c-44.1,0-80-35.9-80-80V120c0-44.1,35.9-80,80-80H302z M256,81c-11,0-20,9-20,20
	s9,20,20,20s20-9,20-20S267,81,256,81z M256,161c-11,0-20,9-20,20s9,20,20,20s20-9,20-20S267,161,256,161z M256,241
	c-11,0-20,9-20,20c0,11,9,20,20,20s20-9,20-20C276,250,267,241,256,241z"/>
</svg>
