<?xml version="1.0" encoding="utf-8"?>
<!-- Generator: Adobe Illustrator 22.0.1, SVG Export Plug-In . SVG Version: 6.00 Build 0)  -->
<svg version="1.1" id="레이어_1" xmlns="http://www.w3.org/2000/svg" xmlns:xlink="http://www.w3.org/1999/xlink" x="0px"
	 y="0px" width="24px" height="24px" viewBox="0 0 24 24" style="enable-background:new 0 0 24 24;" xml:space="preserve">
<style type="text/css">
	.st0{fill:none;}
</style>
<path class="st0" d="M0,0h24v24H0V0z"/>
<path d="M20,15.5c-1.3,0-2.5-0.2-3.6-0.6c-0.4-0.1-0.7,0-1,0.2l-2.2,2.2c-2.8-1.4-5.2-3.8-6.6-6.6l2.2-2.2c0.3-0.3,0.4-0.7,0.3-1
	C8.7,6.4,8.5,5.3,8.5,4c0-0.5-0.4-1-1-1H4C3.5,3,3,3.5,3,4c0,9.4,7.6,17,17,17c0.5,0,1-0.5,1-1v-3.5C21,15.9,20.5,15.5,20,15.5z"/>
</svg>
